<svg width="11" height="11" viewBox="0 0 11 11" fill="none" xmlns="http://www.w3.org/2000/svg">
<path d="M9.5165 5.73292C9.69697 5.49444 9.79688 5.20226 9.79688 4.89825C9.79688 4.41593 9.52725 3.95939 9.09326 3.7048C8.98154 3.63926 8.85433 3.60477 8.7248 3.60489H6.14883L6.21328 2.28468C6.22832 1.96564 6.11553 1.66271 5.89639 1.43175C5.78884 1.31791 5.6591 1.22734 5.51516 1.16563C5.37123 1.10392 5.21617 1.07238 5.05957 1.07296C4.50098 1.07296 4.00684 1.44894 3.85859 1.98712L2.93584 5.32794H1.54688C1.35674 5.32794 1.20312 5.48155 1.20312 5.67169V9.58185C1.20312 9.77198 1.35674 9.9256 1.54688 9.9256H8.00615C8.10498 9.9256 8.20166 9.90626 8.29082 9.86759C8.80215 9.64952 9.13193 9.15001 9.13193 8.59571C9.13193 8.46036 9.1126 8.32716 9.07393 8.19825C9.25439 7.95978 9.3543 7.66759 9.3543 7.36358C9.3543 7.22823 9.33496 7.09503 9.29629 6.96612C9.47676 6.72765 9.57666 6.43546 9.57666 6.13146C9.57451 5.9961 9.55518 5.86183 9.5165 5.73292ZM1.97656 9.15216V6.10138H2.84668V9.15216H1.97656ZM8.81289 5.36017L8.57764 5.56427L8.72695 5.83712C8.77615 5.927 8.80165 6.02792 8.80107 6.13038C8.80107 6.30763 8.72373 6.47628 8.59053 6.5923L8.35527 6.7964L8.50459 7.06925C8.55378 7.15913 8.57929 7.26005 8.57871 7.36251C8.57871 7.53976 8.50137 7.70841 8.36816 7.82442L8.13291 8.02853L8.28223 8.30138C8.33142 8.39126 8.35693 8.49218 8.35635 8.59464C8.35635 8.83526 8.21455 9.05226 7.99541 9.15108H3.53418V6.067L4.60303 2.19444C4.63059 2.09519 4.68975 2.00762 4.77155 1.94501C4.85336 1.8824 4.95334 1.84815 5.05635 1.84747C5.13799 1.84747 5.21855 1.8711 5.28301 1.91944C5.38936 1.99894 5.44629 2.11925 5.43984 2.24708L5.33672 4.37833H8.71406C8.90527 4.49542 9.02344 4.69308 9.02344 4.89825C9.02344 5.0755 8.94609 5.24308 8.81289 5.36017Z" fill="white"/>
</svg>
