<svg width="21" height="20" viewBox="0 0 21 20" fill="none" xmlns="http://www.w3.org/2000/svg">
<path d="M3.51487 14.2984C3.65111 14.4351 3.7555 14.6003 3.82061 14.782C3.88572 14.9637 3.90995 15.1575 3.89156 15.3497C3.79932 16.239 3.62444 17.1178 3.36919 17.9747C5.20012 17.5508 6.31838 17.0599 6.82631 16.8026C7.11441 16.6567 7.44619 16.6221 7.75819 16.7055C8.65257 16.9439 9.57438 17.064 10.5 17.0625C15.7447 17.0625 19.6875 13.3783 19.6875 9.1875C19.6875 4.998 15.7447 1.3125 10.5 1.3125C5.25525 1.3125 1.3125 4.998 1.3125 9.1875C1.3125 11.1143 2.12231 12.9019 3.51487 14.2984ZM2.86781 19.4237C2.55684 19.4853 2.24486 19.5418 1.932 19.593C1.6695 19.635 1.47 19.362 1.57369 19.1179C1.69023 18.843 1.79704 18.5642 1.89394 18.2818L1.89787 18.2687C2.22337 17.3237 2.4885 16.2369 2.58563 15.225C0.975188 13.6106 0 11.4975 0 9.1875C0 4.11338 4.70137 0 10.5 0C16.2986 0 21 4.11338 21 9.1875C21 14.2616 16.2986 18.375 10.5 18.375C9.46004 18.3764 8.42439 18.2414 7.41956 17.9734C6.73706 18.3186 5.26838 18.9473 2.86781 19.4237Z" fill="#717171"/>
</svg>
