<svg width="24" height="24" viewBox="0 0 24 24" fill="none" xmlns="http://www.w3.org/2000/svg">
<path d="M12.0001 23.1378C9.37382 23.1378 6.95797 22.2224 5.0515 20.6959C5.07486 16.9124 8.16016 13.8414 11.9491 13.8414C15.7524 13.8414 18.8468 16.9358 18.8468 20.7391C18.8468 20.7507 18.8479 20.7623 18.8497 20.7733C16.9587 22.253 14.5818 23.1378 12.0001 23.1378ZM12.1264 0.863041L12.1263 0.862798C18.2096 0.930693 23.138 5.90078 23.138 12C23.138 15.2089 21.7735 18.1044 19.5944 20.1393C19.3426 16.9006 17.0703 14.2217 14.0402 13.3616C15.6448 12.5829 16.7544 10.9372 16.7544 9.03654C16.7544 6.38696 14.5988 4.23131 11.9491 4.23131C9.29952 4.23152 7.14431 6.38734 7.14431 9.03696C7.14431 10.9376 8.25368 12.5833 9.85831 13.362C6.85618 14.2141 4.59916 16.8524 4.31322 20.051C2.18885 18.0213 0.862515 15.1637 0.862515 12.001C0.862515 5.85976 5.85908 0.863041 12.0004 0.863041H12.1264ZM0.0909194 12C0.0909194 18.5668 5.4332 23.9091 12 23.9091C18.5668 23.9091 23.9091 18.5668 23.9091 12C23.9091 5.4332 18.5668 0.0909194 12 0.0909194C5.4332 0.0909194 0.0909194 5.4332 0.0909194 12ZM11.9491 13.0699C9.72489 13.0699 7.91502 11.2602 7.91502 9.0358C7.91502 6.81136 9.72469 5.00169 11.9491 5.00169C14.1736 5.00169 15.9832 6.81136 15.9832 9.0358C15.9832 11.2602 14.1736 13.0699 11.9491 13.0699Z" fill="#717171" stroke="#717171" stroke-width="0.176931"/>
</svg>
