<svg width="25" height="24" viewBox="0 0 25 24" fill="none" xmlns="http://www.w3.org/2000/svg">
<path d="M5.46338 24H19.2932C22.3081 24 24.7608 21.5473 24.7608 18.5359V11.1839C24.7608 9.55099 24.0379 8.01517 22.7799 6.97439L15.8635 1.25234C13.8456 -0.417448 10.9145 -0.417448 8.8969 1.25234L1.98051 6.97439C0.722651 8.01517 0 9.54771 0 11.1839V18.5353C0 21.547 2.45267 23.9996 5.4641 23.9996L5.46338 24ZM1.33763 11.1842C1.33763 9.94949 1.8831 8.79178 2.8333 8.00543L9.74969 2.28338C11.2755 1.02182 13.4873 1.02182 15.0098 2.28338L21.9262 8.00543C22.8764 8.79178 23.4219 9.94949 23.4219 11.1842V18.5356C23.4219 20.8111 21.5714 22.6616 19.2961 22.6616H5.46272C3.18745 22.6616 1.33697 20.8111 1.33697 18.5358L1.33763 11.1842Z" fill="#F8A002"/>
<path d="M8.6987 21.3229C9.06679 21.3229 9.36787 21.0218 9.36787 20.6538L9.3681 14.8717C9.3681 14.0018 10.0774 13.2922 10.9476 13.2922H13.8153C14.6852 13.2922 15.3912 14.0015 15.3912 14.8717L15.391 20.6538C15.391 21.0219 15.6921 21.3229 16.0602 21.3229C16.4283 21.3229 16.7294 21.0218 16.7294 20.6538L16.7296 14.8717C16.7296 13.2621 15.4213 11.9539 13.815 11.9539H10.9474C9.33799 11.9539 8.02952 13.2622 8.02952 14.8717V20.6538C8.02952 21.0219 8.33062 21.3229 8.69869 21.3229H8.6987Z" fill="#F8A002"/>
</svg>
