<svg width="19" height="11" viewBox="0 0 19 11" fill="none" xmlns="http://www.w3.org/2000/svg">
<path d="M9.5 0L9.31006 0.0571539L1.72462 2.57674L0 3.14046L1.00431 3.45932V8.72351C0.642031 8.93227 0.397477 9.3131 0.397477 9.7583C0.397477 10.0774 0.525345 10.3835 0.752953 10.6091C0.98056 10.8348 1.28926 10.9615 1.61115 10.9615C1.93303 10.9615 2.24173 10.8348 2.46934 10.6091C2.69695 10.3835 2.82482 10.0774 2.82482 9.7583C2.82482 9.3131 2.58026 8.93227 2.21798 8.72351V3.87444L3.43165 4.2685V7.35181C3.43165 7.84514 3.73507 8.25424 4.09553 8.53701C4.45599 8.81796 4.90383 9.0165 5.44149 9.19458C6.51801 9.54953 7.93679 9.7583 9.5 9.7583C11.0632 9.7583 12.482 9.55013 13.5585 9.19398C14.0962 9.0165 14.544 8.81796 14.9045 8.5364C15.2649 8.25424 15.5684 7.84514 15.5684 7.35181V4.2685L17.2754 3.70418L19 3.14046L17.2748 2.57614L9.68933 0.0571539L9.5 0ZM9.5 1.2604L15.1891 3.14046L9.5 5.02053L3.81092 3.14046L9.5 1.2604ZM4.64532 4.68242L9.31067 6.22377L9.5 6.28032L9.68994 6.22317L14.3547 4.68182V7.35181C14.3547 7.35783 14.3571 7.42762 14.1647 7.57742C13.973 7.72782 13.6289 7.91733 13.1786 8.06654C12.2793 8.36314 10.9534 8.55505 9.5 8.55505C8.04663 8.55505 6.7207 8.36374 5.82076 8.06594C5.3717 7.91733 5.02702 7.72722 4.83526 7.57742C4.64229 7.42701 4.64532 7.35783 4.64532 7.35181V4.68242Z" fill="white"/>
</svg>
