<svg width="15" height="16" viewBox="0 0 15 16" fill="none" xmlns="http://www.w3.org/2000/svg">
<path d="M14.5106 8.13376C14.8256 7.71751 15 7.20751 15 6.67689C15 5.83501 14.5294 5.03814 13.7719 4.59376C13.5769 4.47938 13.3548 4.41918 13.1287 4.41939H8.6325L8.745 2.11501C8.77125 1.55814 8.57438 1.02939 8.19188 0.626264C8.00416 0.427567 7.77769 0.269476 7.52647 0.161761C7.27524 0.0540466 7.00459 -0.00100315 6.73125 1.38378e-05C5.75625 1.38378e-05 4.89375 0.656264 4.635 1.59564L3.02437 7.42689H0.6C0.268125 7.42689 0 7.69501 0 8.02689V14.8519C0 15.1838 0.268125 15.4519 0.6 15.4519H11.8744C12.0469 15.4519 12.2156 15.4181 12.3713 15.3506C13.2637 14.97 13.8394 14.0981 13.8394 13.1306C13.8394 12.8944 13.8056 12.6619 13.7381 12.4369C14.0531 12.0206 14.2275 11.5106 14.2275 10.98C14.2275 10.7438 14.1937 10.5113 14.1263 10.2863C14.4413 9.87001 14.6156 9.36001 14.6156 8.82939C14.6119 8.59314 14.5781 8.35876 14.5106 8.13376ZM1.35 14.1019V8.77689H2.86875V14.1019H1.35ZM13.2825 7.48314L12.8719 7.83939L13.1325 8.31564C13.2184 8.47252 13.2629 8.64867 13.2619 8.82751C13.2619 9.13689 13.1269 9.43126 12.8944 9.63376L12.4838 9.99001L12.7444 10.4663C12.8302 10.6231 12.8748 10.7993 12.8737 10.9781C12.8737 11.2875 12.7387 11.5819 12.5062 11.7844L12.0956 12.1406L12.3563 12.6169C12.4421 12.7738 12.4866 12.9499 12.4856 13.1288C12.4856 13.5488 12.2381 13.9275 11.8556 14.1H4.06875V8.71689L5.93438 1.95751C5.98248 1.78426 6.08575 1.63142 6.22853 1.52213C6.37131 1.41285 6.54582 1.35308 6.72563 1.35189C6.86813 1.35189 7.00875 1.39314 7.12125 1.47751C7.30687 1.61626 7.40625 1.82626 7.395 2.04939L7.215 5.76939H13.11C13.4437 5.97376 13.65 6.31876 13.65 6.67689C13.65 6.98626 13.515 7.27876 13.2825 7.48314Z" fill="#848484"/>
</svg>
