<svg width="16" height="16" viewBox="0 0 16 16" fill="none" xmlns="http://www.w3.org/2000/svg">
<path d="M7.99313 1.33313C4.31313 1.33313 1.33313 4.3198 1.33313 7.9998C1.33313 11.6798 4.31313 14.6665 7.99313 14.6665C11.6798 14.6665 14.6665 11.6798 14.6665 7.9998C14.6665 4.3198 11.6798 1.33313 7.99313 1.33313ZM7.9998 13.3331C5.05313 13.3331 2.66646 10.9465 2.66646 7.9998C2.66646 5.05313 5.05313 2.66646 7.9998 2.66646C10.9465 2.66646 13.3331 5.05313 13.3331 7.9998C13.3331 10.9465 10.9465 13.3331 7.9998 13.3331ZM7.85313 4.66646H7.81313C7.54646 4.66646 7.33313 4.8798 7.33313 5.14646V8.29313C7.33313 8.52646 7.45313 8.74646 7.6598 8.86646L10.4265 10.5265C10.6531 10.6598 10.9465 10.5931 11.0798 10.3665C11.1133 10.3125 11.1355 10.2523 11.1453 10.1895C11.155 10.1268 11.152 10.0627 11.1365 10.0011C11.1209 9.93952 11.0931 9.8817 11.0548 9.83108C11.0164 9.78046 10.9682 9.73808 10.9131 9.70646L8.33313 8.17313V5.14646C8.33313 4.8798 8.1198 4.66646 7.85313 4.66646Z" fill="#222222"/>
</svg>
