<svg width="9" height="5" viewBox="0 0 9 5" fill="none" xmlns="http://www.w3.org/2000/svg">
<path d="M4.33333 0L4.2467 0.0260702L0.786671 1.17536L0 1.43249L0.458107 1.57794V3.97914C0.292856 4.07437 0.181305 4.24808 0.181305 4.45115C0.181305 4.59672 0.239631 4.73632 0.343452 4.83925C0.447273 4.94218 0.588084 5 0.734909 5C0.881734 5 1.02255 4.94218 1.12637 4.83925C1.23019 4.73632 1.28851 4.59672 1.28851 4.45115C1.28851 4.24808 1.17696 4.07437 1.01171 3.97914V1.76729L1.56532 1.94704V3.35346C1.56532 3.57849 1.70372 3.76509 1.86814 3.89407C2.03256 4.02223 2.23684 4.11279 2.48208 4.19402C2.97313 4.35593 3.62029 4.45115 4.33333 4.45115C5.04638 4.45115 5.69354 4.3562 6.18459 4.19374C6.42983 4.11279 6.63411 4.02223 6.79853 3.8938C6.96295 3.76509 7.10135 3.57849 7.10135 3.35346V1.94704L7.88 1.68963L8.66667 1.43249L7.87972 1.17508L4.4197 0.0260702L4.33333 0ZM4.33333 0.574918L6.92835 1.43249L4.33333 2.29007L1.73832 1.43249L4.33333 0.574918ZM2.11892 2.13584L4.24697 2.83891L4.33333 2.86471L4.41997 2.83864L6.54775 2.13557V3.35346C6.54775 3.3562 6.54886 3.38804 6.46111 3.45637C6.37364 3.52497 6.21669 3.61142 6.01131 3.67947C5.60109 3.81476 4.99628 3.90231 4.33333 3.90231C3.67039 3.90231 3.06558 3.81504 2.65508 3.6792C2.45025 3.61142 2.29303 3.5247 2.20556 3.45637C2.11753 3.38776 2.11892 3.3562 2.11892 3.35346V2.13584Z" fill="white"/>
</svg>
