<svg width="23" height="23" viewBox="0 0 23 23" fill="none" xmlns="http://www.w3.org/2000/svg">
<path d="M14.9858 13.7971C14.6754 13.7973 14.3779 13.9214 14.1596 14.1418C13.9412 14.3623 13.8198 14.6608 13.8225 14.9711C13.8253 15.2815 13.9517 15.5778 14.174 15.7944L20.5737 22.1986C20.8685 22.4926 21.2975 22.607 21.6991 22.4986C22.1011 22.3905 22.4145 22.0761 22.5217 21.674C22.629 21.2719 22.5135 20.8433 22.2189 20.5493L15.8192 14.1496C15.6004 13.9246 15.2998 13.7975 14.986 13.7974L14.9858 13.7971Z" fill="#717171" stroke="white" stroke-width="0.861877"/>
<path d="M9.16667 0.438877C4.36015 0.438877 0.438877 4.36015 0.438877 9.16667C0.438877 13.9732 4.36015 17.8945 9.16667 17.8945C13.9732 17.8945 17.8945 13.9732 17.8945 9.16667C17.8945 4.36015 13.9732 0.438877 9.16667 0.438877ZM9.16667 2.76695C12.7152 2.76695 15.5664 5.6181 15.5664 9.16667C15.5664 12.7152 12.7152 15.5664 9.16667 15.5664C5.6181 15.5664 2.76695 12.7152 2.76695 9.16667C2.76695 5.6181 5.6181 2.76695 9.16667 2.76695Z" fill="#717171" stroke="white" stroke-width="0.861877"/>
</svg>
