<svg width="12" height="20" viewBox="0 0 12 20" fill="none" xmlns="http://www.w3.org/2000/svg">
<path d="M0 10C0 10.3842 0.146893 10.7119 0.451977 11.0056L9.26554 19.6271C9.50282 19.8757 9.81921 20 10.1808 20C10.9153 20 11.4915 19.435 11.4915 18.6893C11.4915 18.3277 11.3446 18 11.096 17.7514L3.15254 10L11.096 2.24859C11.3446 1.9887 11.4915 1.66102 11.4915 1.29944C11.4915 0.564972 10.9153 0 10.1808 0C9.81921 0 9.50282 0.124294 9.26554 0.372881L0.451977 8.99435C0.146893 9.28814 0.0112994 9.61582 0 10Z" fill="#222222"/>
</svg>
