<svg width="10" height="11" viewBox="0 0 10 11" fill="none" xmlns="http://www.w3.org/2000/svg">
<path d="M2.96154 5.07692C2.4005 5.07692 1.86245 4.85405 1.46573 4.45734C1.06902 4.06062 0.846153 3.52257 0.846153 2.96153V1.26923C0.846153 1.15702 0.890727 1.04941 0.970069 0.970069C1.04941 0.890727 1.15702 0.846153 1.26923 0.846153H1.69231C1.80451 0.846153 1.91212 0.801579 1.99147 0.722237C2.07081 0.642894 2.11538 0.535283 2.11538 0.423076C2.11538 0.31087 2.07081 0.203258 1.99147 0.123916C1.91212 0.044574 1.80451 0 1.69231 0H1.26923C0.932609 0 0.609775 0.133722 0.371749 0.371749C0.133722 0.609775 0 0.932609 0 1.26923V2.96153C0.000543831 3.4395 0.117096 3.91019 0.339646 4.33318C0.562196 4.75618 0.884092 5.11883 1.27769 5.38999C1.65585 5.72339 1.96253 6.12996 2.17922 6.58515C2.39591 7.04034 2.51811 7.53472 2.53846 8.03845C2.53846 8.8239 2.85048 9.57718 3.40587 10.1326C3.96127 10.688 4.71455 11 5.49999 11C6.28544 11 7.03872 10.688 7.59412 10.1326C8.14951 9.57718 8.46153 8.8239 8.46153 8.03845V7.55615C8.86035 7.45317 9.20792 7.20828 9.43909 6.86737C9.67027 6.52647 9.76917 6.11295 9.71727 5.70434C9.66537 5.29573 9.46623 4.92007 9.15717 4.64778C8.8481 4.37549 8.45035 4.22527 8.03845 4.22527C7.62656 4.22527 7.2288 4.37549 6.91974 4.64778C6.61068 4.92007 6.41154 5.29573 6.35964 5.70434C6.30773 6.11295 6.40664 6.52647 6.63782 6.86737C6.86899 7.20828 7.21656 7.45317 7.61538 7.55615V8.03845C7.61538 8.59949 7.39251 9.13754 6.9958 9.53425C6.59908 9.93096 6.06103 10.1538 5.49999 10.1538C4.93896 10.1538 4.4009 9.93096 4.00419 9.53425C3.60748 9.13754 3.38461 8.59949 3.38461 8.03845C3.40603 7.5341 3.52955 7.03934 3.74772 6.58411C3.96588 6.12888 4.27414 5.72264 4.65384 5.38999C5.04588 5.11789 5.36613 4.75482 5.58717 4.33189C5.80822 3.90895 5.92347 3.43875 5.92307 2.96153V1.26923C5.92307 0.932609 5.78935 0.609775 5.55132 0.371749C5.3133 0.133722 4.99046 0 4.65384 0H4.23076C4.11856 0 4.01095 0.044574 3.9316 0.123916C3.85226 0.203258 3.80769 0.31087 3.80769 0.423076C3.80769 0.535283 3.85226 0.642894 3.9316 0.722237C4.01095 0.801579 4.11856 0.846153 4.23076 0.846153H4.65384C4.76605 0.846153 4.87366 0.890727 4.953 0.970069C5.03234 1.04941 5.07692 1.15702 5.07692 1.26923V2.96153C5.07692 3.23933 5.0222 3.51441 4.91589 3.77106C4.80959 4.02771 4.65377 4.2609 4.45734 4.45734C4.26091 4.65377 4.02771 4.80959 3.77106 4.91589C3.51441 5.0222 3.23933 5.07692 2.96154 5.07692ZM8.03845 6.76922C7.81404 6.76922 7.59882 6.68007 7.44013 6.52139C7.28145 6.36271 7.1923 6.14748 7.1923 5.92307C7.1923 5.69866 7.28145 5.48343 7.44013 5.32475C7.59882 5.16607 7.81404 5.07692 8.03845 5.07692C8.26287 5.07692 8.47809 5.16607 8.63677 5.32475C8.79546 5.48343 8.88461 5.69866 8.88461 5.92307C8.88461 6.14748 8.79546 6.36271 8.63677 6.52139C8.47809 6.68007 8.26287 6.76922 8.03845 6.76922Z" fill="white"/>
</svg>
