<svg width="14" height="14" viewBox="0 0 14 14" fill="none" xmlns="http://www.w3.org/2000/svg">
<path d="M3.88886 2.02221H10.8889V2.62499H3.88886V2.02221Z" fill="#222222"/>
<path d="M11.2778 3.1111H3.83444C3.73519 3.1097 3.63726 3.08821 3.54655 3.04792C3.45584 3.00764 3.37423 2.9494 3.30663 2.87672C3.23904 2.80404 3.18687 2.71842 3.15326 2.62503C3.11966 2.53164 3.10532 2.43241 3.1111 2.33333C3.11062 2.13614 3.18505 1.94614 3.31934 1.80174C3.45362 1.65735 3.63774 1.56935 3.83444 1.55555H11.2778C11.3809 1.55555 11.4798 1.51458 11.5528 1.44165C11.6257 1.36872 11.6667 1.2698 11.6667 1.16666C11.6667 1.06352 11.6257 0.964605 11.5528 0.891674C11.4798 0.818743 11.3809 0.777771 11.2778 0.777771H3.83444C3.43139 0.791886 3.04957 0.961985 2.76952 1.25219C2.48947 1.5424 2.33308 1.93003 2.33333 2.33333C2.32956 2.39679 2.32956 2.46042 2.33333 2.52388C2.32958 2.55488 2.32958 2.58622 2.33333 2.61722V11.6667C2.33308 12.07 2.48947 12.4576 2.76952 12.7478C3.04957 13.038 3.43139 13.2081 3.83444 13.2222H11.2778C11.3809 13.2222 11.4798 13.1812 11.5528 13.1083C11.6257 13.0354 11.6667 12.9365 11.6667 12.8333V3.52722C11.6669 3.42141 11.6268 3.3195 11.5546 3.2422C11.4823 3.1649 11.3833 3.11803 11.2778 3.1111ZM10.8889 12.4444H3.83444C3.63774 12.4306 3.45362 12.3426 3.31934 12.1982C3.18505 12.0539 3.11062 11.8638 3.1111 11.6667V3.71388C3.33222 3.83586 3.58201 3.8963 3.83444 3.88888H10.8889V12.4444Z" fill="#222222"/>
</svg>
