<svg width="32" height="21" viewBox="0 0 32 21" fill="none" xmlns="http://www.w3.org/2000/svg">
<path d="M6.93437 6.13633C6.93437 6.22917 6.93106 6.32202 6.92442 6.41487C6.92442 6.43477 6.92442 6.54088 6.91116 6.55083C6.91448 6.54751 6.93769 6.38171 6.91448 6.51103C6.88132 6.68678 6.84484 6.86253 6.78847 7.03164C6.76857 7.09133 6.74536 7.24055 6.69563 7.28034C6.73873 7.24055 6.74537 7.17091 6.70889 7.24386C6.68899 7.28366 6.67241 7.32345 6.65252 7.36324C6.57294 7.51909 6.4834 7.66831 6.38392 7.8109C6.37398 7.82416 6.36734 7.83411 6.3574 7.84737C6.31429 7.90375 6.32424 7.8938 6.38392 7.81753C6.38061 7.84074 6.33087 7.88385 6.31429 7.90043C6.26455 7.96012 6.2115 8.01981 6.15512 8.07617C6.10539 8.12923 6.05233 8.17897 5.99927 8.22871C5.96611 8.25855 5.93627 8.28508 5.90311 8.31492C5.8799 8.33482 5.86001 8.3514 5.83679 8.3713C5.78042 8.4144 5.79037 8.40777 5.86995 8.34808C5.86332 8.38124 5.72736 8.45088 5.69089 8.47409C5.61794 8.52051 5.54499 8.56693 5.46872 8.61004C5.40571 8.64652 5.3394 8.67968 5.27307 8.70952L5.23328 8.72942C5.16696 8.75926 5.18023 8.75263 5.26976 8.71615C5.24323 8.746 5.14375 8.76589 5.10396 8.77916C4.95142 8.83222 4.79226 8.87532 4.63309 8.90848C4.60325 8.91511 4.5734 8.91843 4.54356 8.92506C4.53029 8.92838 4.51371 8.92838 4.50045 8.93169C4.4275 8.94164 4.44076 8.94164 4.54024 8.92838C4.50708 8.96485 4.31807 8.94827 4.26501 8.95159C4.0959 8.95822 3.92679 8.94827 3.75767 8.93501C3.5985 8.92175 3.9102 8.96485 3.75435 8.93501C3.71125 8.92838 3.66482 8.91843 3.62171 8.9118C3.5355 8.89522 3.44597 8.87201 3.35975 8.84879C3.27354 8.82558 3.19064 8.79574 3.10774 8.76589C3.07458 8.75263 3.03811 8.73936 3.00495 8.7261C2.91541 8.69626 3.15416 8.79573 3.02153 8.73273C2.86568 8.65647 2.70983 8.57688 2.56392 8.48072C2.52745 8.45751 2.49097 8.43098 2.45781 8.40777C2.44455 8.39782 2.32517 8.32819 2.42134 8.38124C2.51418 8.4343 2.40144 8.36466 2.38818 8.3514C2.35502 8.32487 2.32185 8.29503 2.2887 8.26518C2.15938 8.14912 2.04 8.02312 1.92726 7.89048C1.91731 7.88053 1.90736 7.86727 1.90073 7.85732C1.85762 7.80095 1.86426 7.81089 1.92394 7.89048C1.91731 7.89048 1.87089 7.82084 1.8742 7.82084C1.82446 7.75121 1.77473 7.67825 1.73162 7.60199C1.69514 7.53898 1.65867 7.47598 1.6255 7.41298C1.60561 7.37319 1.58571 7.33339 1.56582 7.29692C1.55255 7.27039 1.5426 7.24386 1.52934 7.21733C1.56582 7.31018 1.57245 7.32013 1.54592 7.25381C1.48955 7.10127 1.43649 6.94874 1.40002 6.78957C1.38344 6.71663 1.36686 6.64367 1.3536 6.57072C1.35028 6.55746 1.35028 6.54088 1.34697 6.52761C1.33702 6.45466 1.33702 6.46792 1.35028 6.5674C1.33039 6.54751 1.33702 6.43808 1.3337 6.40824C1.32044 6.24575 1.32044 6.08327 1.33039 5.92079C1.3337 5.87436 1.33702 5.82794 1.34365 5.78483C1.35691 5.62566 1.31381 5.93736 1.34365 5.78152C1.36023 5.69198 1.37681 5.60577 1.3967 5.51624C1.43318 5.35707 1.48624 5.20454 1.5426 5.052C1.59566 4.9061 1.47628 5.18796 1.54592 5.04869C1.56582 5.0089 1.5824 4.9691 1.60229 4.92931C1.64208 4.85304 1.68519 4.77346 1.7283 4.70051C1.77472 4.62756 1.82114 4.55461 1.87089 4.48166C1.87752 4.47171 1.91399 4.41202 1.92063 4.41202C1.90405 4.43523 1.88747 4.45513 1.87089 4.47834C1.88747 4.45513 1.90736 4.43192 1.92394 4.41202C2.03337 4.27938 2.15606 4.15338 2.28538 4.03732C2.31854 4.00747 2.40476 3.90468 2.45118 3.89804C2.42797 3.91462 2.40807 3.9312 2.38486 3.94778C2.40807 3.9312 2.43128 3.91462 2.45449 3.89804C2.49097 3.87152 2.52412 3.8483 2.5606 3.82509C2.7065 3.72893 2.86236 3.64935 3.01821 3.57308C3.13095 3.52003 2.98505 3.58303 2.98173 3.58635C2.99831 3.56645 3.08121 3.54656 3.10442 3.53992C3.18732 3.51008 3.27354 3.48355 3.35643 3.45702C3.42938 3.43713 3.49902 3.42055 3.57197 3.40397C3.61508 3.39402 3.6615 3.38739 3.70461 3.37744C3.73445 3.37081 3.7643 3.36749 3.79414 3.36418C3.7013 3.37744 3.67808 3.38076 3.73114 3.37412C3.90025 3.36086 4.06937 3.3476 4.23848 3.35423C4.32138 3.35754 4.4076 3.36418 4.49049 3.37081C4.64966 3.38407 4.33796 3.34428 4.49381 3.37081C4.53692 3.37744 4.58334 3.38739 4.62645 3.39402C4.81546 3.4305 5.00115 3.48686 5.18021 3.55319C5.19348 3.55982 5.20674 3.56314 5.22001 3.56977C5.28633 3.5963 5.27306 3.59298 5.18353 3.55319C5.20343 3.54324 5.30291 3.60956 5.3228 3.61951C5.40902 3.66262 5.49192 3.70573 5.5715 3.75546C5.64445 3.80189 5.7174 3.84831 5.79036 3.89805C5.80362 3.908 5.81357 3.91463 5.82683 3.92458C5.8832 3.96769 5.87326 3.95774 5.79699 3.89805C5.83346 3.90469 5.9031 3.98427 5.92963 4.00748C6.05895 4.12023 6.18164 4.24623 6.29438 4.37555C6.31096 4.39545 6.37397 4.45182 6.37728 4.47503C6.3176 4.39876 6.31096 4.38881 6.35076 4.44519C6.36734 4.4684 6.38392 4.49161 6.4005 4.51482C6.45023 4.58777 6.49666 4.66072 6.53977 4.73368C6.59282 4.82321 6.63925 4.91274 6.68236 5.00227C6.68899 5.01553 6.72215 5.07522 6.71883 5.08185C6.68236 4.98901 6.67572 4.97906 6.70225 5.04538C6.7122 5.07191 6.72215 5.10175 6.7321 5.12828C6.79842 5.31066 6.85147 5.49635 6.88463 5.68536C6.89126 5.72184 6.89789 5.75831 6.90452 5.79811C6.91116 5.84785 6.90784 5.82795 6.89458 5.7351C6.89789 5.76494 6.90121 5.79479 6.90452 5.82463C6.92774 5.9208 6.93105 6.03022 6.93437 6.13633C6.93768 6.48451 7.23612 6.81611 7.59759 6.79956C7.95572 6.78298 8.26409 6.50775 8.26082 6.13633C8.25087 4.39211 7.14999 2.86017 5.52515 2.25C3.95004 1.65976 2.04671 2.17042 0.97893 3.47361C0.41853 4.15673 0.0902649 4.95583 0.0139862 5.83789C-0.0589637 6.6735 0.156575 7.54228 0.587647 8.25856C1.49293 9.76066 3.25698 10.5101 4.96803 10.1785C6.58953 9.8668 7.94909 8.47411 8.19781 6.83934C8.23429 6.60722 8.26082 6.37179 8.26082 6.13633C8.26413 5.78816 7.95575 5.45656 7.59759 5.47311C7.23615 5.48969 6.93437 5.76491 6.93437 6.13633L6.93437 6.13633Z" fill="#717171"/>
<path d="M16.4077 15.8659C16.4077 15.9753 16.4044 16.0814 16.3978 16.1909C16.3945 16.2506 16.3878 16.3136 16.3812 16.3732C16.3779 16.3931 16.3679 16.4727 16.3812 16.3766C16.3978 16.2671 16.3779 16.3998 16.3746 16.423C16.3381 16.6418 16.285 16.8607 16.2154 17.0729C16.1822 17.1724 16.1458 17.2653 16.1093 17.3614C16.0662 17.4708 16.1657 17.2454 16.0993 17.3846C16.0728 17.4443 16.043 17.504 16.0131 17.5604C15.9136 17.7527 15.8009 17.9417 15.6749 18.1175C15.6583 18.1374 15.5688 18.2799 15.6251 18.1904C15.6749 18.1075 15.592 18.2335 15.5688 18.26C15.4958 18.3496 15.4196 18.4358 15.3367 18.5154C15.267 18.5883 15.1941 18.658 15.1178 18.7243C15.0813 18.7574 15.0415 18.7906 15.0051 18.8238C14.9752 18.847 14.8393 18.9431 14.9188 18.8934C15.0084 18.8403 14.8691 18.9299 14.8459 18.9431C14.7995 18.9763 14.7497 19.0094 14.7033 19.0393C14.6138 19.099 14.5176 19.1553 14.4248 19.2084C14.3286 19.2615 14.2324 19.3112 14.133 19.3576C14.1131 19.3676 14.0932 19.3742 14.0733 19.3841C13.9937 19.4273 14.196 19.3377 14.1097 19.3676C14.0534 19.3875 14.0003 19.4107 13.9473 19.4306C13.7384 19.5068 13.5228 19.5665 13.3073 19.6096C13.2542 19.6196 13.2045 19.6295 13.1514 19.6395C13.1216 19.6428 13.0917 19.6461 13.0619 19.6527C13.0619 19.6527 13.2011 19.6362 13.1249 19.6428C13.0022 19.6527 12.8828 19.666 12.7601 19.6693C12.538 19.676 12.3158 19.666 12.0936 19.6428C11.9643 19.6295 12.1301 19.6527 12.1334 19.6494C12.1235 19.6561 12.0472 19.6362 12.0439 19.6362C11.9908 19.6262 11.9411 19.6196 11.888 19.6063C11.7786 19.5831 11.6692 19.5599 11.5631 19.5267C11.457 19.4969 11.3508 19.4637 11.248 19.4239C11.1983 19.4074 11.1519 19.3875 11.1055 19.3676C11.0159 19.3311 11.1254 19.3908 11.1419 19.3841C11.132 19.3875 11.0723 19.3543 11.0624 19.3477C10.8634 19.2581 10.6744 19.152 10.492 19.0327C10.4489 19.0061 10.2533 18.9067 10.2433 18.8569C10.2499 18.8834 10.3461 18.9398 10.2765 18.8801C10.2533 18.8602 10.23 18.8436 10.2101 18.8271C10.167 18.7906 10.1239 18.7541 10.0808 18.7143C9.92166 18.5684 9.76912 18.4126 9.63317 18.2468C9.61327 18.2202 9.52706 18.0976 9.5768 18.1771C9.62985 18.2667 9.54032 18.1274 9.52706 18.1042C9.46073 18.0113 9.39773 17.9119 9.33804 17.8124C9.28499 17.7262 9.23525 17.6366 9.19215 17.5471C9.16893 17.5007 9.14572 17.4543 9.12582 17.4112C9.11256 17.3846 9.10261 17.3581 9.08935 17.3316C9.04956 17.2553 9.14903 17.4874 9.09598 17.3481C9.0164 17.1426 8.94676 16.9337 8.89371 16.7148C8.8705 16.612 8.84728 16.5092 8.8307 16.4064C8.82739 16.3832 8.82407 16.3633 8.82075 16.3401C8.80417 16.2506 8.83402 16.4727 8.82739 16.3799C8.82075 16.3202 8.81412 16.2572 8.81081 16.1975C8.79423 15.9687 8.79423 15.7366 8.81081 15.5045C8.81412 15.4514 8.82075 15.3984 8.82739 15.3453C8.84065 15.216 8.81744 15.3818 8.82075 15.3851C8.81412 15.3751 8.83402 15.2989 8.83402 15.2956C8.8506 15.1861 8.87381 15.0734 8.90034 14.9673C8.9534 14.7517 9.02635 14.5461 9.10593 14.3372C9.13246 14.2676 9.08272 14.3969 9.08272 14.3936C9.0794 14.387 9.11256 14.3273 9.11919 14.314C9.13909 14.2676 9.1623 14.2212 9.18551 14.1747C9.23857 14.0719 9.29494 13.9691 9.35463 13.8697C9.40769 13.7835 9.46406 13.6972 9.52043 13.6143C9.53701 13.5911 9.58344 13.495 9.60997 13.4917C9.60665 13.4917 9.50717 13.6177 9.58675 13.5248C9.60665 13.5016 9.62323 13.4784 9.63981 13.4585C9.77908 13.2927 9.9283 13.1368 10.0875 12.9909C10.1306 12.9511 10.1737 12.9147 10.2168 12.8782C10.24 12.8616 10.3726 12.7688 10.2864 12.8218C10.2035 12.8716 10.3328 12.7887 10.3594 12.7721C10.4058 12.7389 10.4555 12.7058 10.502 12.6759C10.6843 12.5565 10.8767 12.4504 11.0723 12.3609C11.0856 12.3543 11.1453 12.3211 11.1519 12.3244C11.1552 12.3244 11.0259 12.3742 11.0955 12.3476C11.1419 12.3311 11.1917 12.3112 11.2381 12.2913C11.3475 12.2515 11.4603 12.215 11.573 12.1818C11.6725 12.1553 11.7753 12.1288 11.8781 12.1089C11.9378 12.0956 11.9975 12.0857 12.0538 12.0757C12.077 12.0724 12.0969 12.0691 12.1201 12.0658C12.203 12.0525 11.9742 12.0824 12.1003 12.0691C12.3291 12.0459 12.5612 12.0359 12.79 12.0459C12.8961 12.0492 13.0022 12.0592 13.1083 12.0691C13.231 12.079 12.979 12.0492 13.1348 12.0724C13.2012 12.0824 13.2675 12.0956 13.3338 12.1089C13.5427 12.152 13.7516 12.2117 13.9539 12.2846C14.0036 12.3012 14.0501 12.3211 14.0965 12.341C14.2159 12.3874 14.0633 12.3244 14.06 12.3244C14.0667 12.3211 14.1429 12.3609 14.1396 12.3609C14.2391 12.4073 14.3352 12.4571 14.4314 12.5101C14.5276 12.5632 14.6204 12.6195 14.71 12.6792C14.7531 12.7058 14.7928 12.7356 14.836 12.7655C14.8658 12.7854 15.0084 12.8782 14.9255 12.8285C14.8393 12.7754 14.9719 12.8649 14.9951 12.8848C15.0349 12.918 15.0714 12.9512 15.1112 12.9843C15.1974 13.0606 15.2803 13.1402 15.3599 13.2231C15.4295 13.296 15.4958 13.3723 15.5622 13.4485C15.5821 13.4718 15.6517 13.5348 15.6583 13.5646C15.6517 13.5149 15.5854 13.4651 15.6318 13.5348C15.6517 13.5646 15.6749 13.5945 15.6948 13.621C15.8208 13.8 15.9302 13.9857 16.0297 14.1814C16.0529 14.2278 16.0761 14.2742 16.096 14.3207C16.106 14.3406 16.1126 14.3604 16.1226 14.3803C16.1623 14.4599 16.0761 14.2577 16.106 14.3439C16.1425 14.4467 16.1856 14.5495 16.2187 14.6556C16.2884 14.8678 16.3414 15.0866 16.3779 15.3055C16.3779 15.3088 16.3978 15.3851 16.3912 15.395C16.3945 15.3917 16.3713 15.2259 16.3845 15.3553C16.3912 15.4083 16.3945 15.4614 16.4011 15.5144C16.4044 15.6338 16.4077 15.7499 16.4077 15.8659C16.411 16.2141 16.7128 16.5457 17.071 16.5291C17.4291 16.5126 17.7375 16.2373 17.7342 15.8659C17.7275 14.828 17.4158 13.7769 16.809 12.928C16.1823 12.0525 15.3334 11.3993 14.322 11.0279C12.349 10.3017 9.99135 10.9417 8.66496 12.5699C7.97857 13.4121 7.56734 14.4103 7.48118 15.4945C7.39497 16.5357 7.66024 17.6167 8.20074 18.5121C8.72466 19.3743 9.51384 20.1038 10.4357 20.5183C11.4503 20.9725 12.548 21.1052 13.6422 20.893C15.6683 20.4984 17.3495 18.7707 17.6645 16.7248C17.7076 16.4396 17.7375 16.1511 17.7408 15.8626C17.7441 15.5144 17.4357 15.1828 17.0776 15.1994C16.7095 15.2193 16.4111 15.4945 16.4077 15.8659L16.4077 15.8659Z" fill="#717171"/>
<path d="M26.1864 3.70978C26.1864 3.78605 26.1831 3.86563 26.1765 3.9419C26.1732 3.97838 26.1699 4.01817 26.1666 4.05465C26.1566 4.15412 26.1964 3.88553 26.1699 4.03475C26.1433 4.18065 26.1102 4.32656 26.0638 4.46914C26.0538 4.5023 26.0173 4.65816 25.9875 4.67805C26.014 4.66479 26.0439 4.55536 26.0008 4.64157C25.9809 4.68137 25.9643 4.72116 25.9444 4.76095C25.8781 4.89027 25.8018 5.01628 25.7189 5.13234C25.7123 5.14229 25.6227 5.25835 25.6924 5.16882C25.762 5.0826 25.6725 5.19203 25.6625 5.20198C25.6161 5.25835 25.5664 5.3114 25.5166 5.36114C25.4768 5.40094 25.4337 5.44404 25.3939 5.48052C25.3608 5.51037 25.3309 5.53689 25.2978 5.56674C25.2878 5.57669 25.2746 5.58663 25.2646 5.59327C25.2082 5.63637 25.2182 5.62974 25.2978 5.57005C25.2911 5.60321 25.1452 5.67617 25.1187 5.69274C25.0623 5.72922 25.0093 5.76238 24.9496 5.79222C24.8932 5.82538 24.8335 5.85523 24.7739 5.88175C24.7606 5.88839 24.7473 5.89502 24.7341 5.90165C24.6677 5.93149 24.681 5.92486 24.7705 5.88839C24.7606 5.90828 24.6644 5.92818 24.6478 5.93481C24.5218 5.97792 24.3925 6.01439 24.2632 6.04424C24.2201 6.05419 24.1737 6.06082 24.1306 6.07077C24.0377 6.09066 24.1471 6.08735 24.1737 6.06745C24.1405 6.10061 23.9415 6.08735 23.8984 6.08735C23.7592 6.09066 23.6232 6.08071 23.4839 6.07077C23.3248 6.0575 23.6365 6.10061 23.4806 6.07077C23.4508 6.06413 23.4209 6.06082 23.3911 6.05419C23.3115 6.03761 23.2319 6.01771 23.1523 5.99781C23.0893 5.98123 23.0263 5.95802 22.9633 5.93813C22.9434 5.93149 22.8473 5.90828 22.8406 5.8917C22.8406 5.89502 22.9932 5.96134 22.8771 5.90497C22.7378 5.83864 22.6052 5.76901 22.4759 5.68279C22.446 5.6629 22.3233 5.60321 22.3167 5.57005C22.3399 5.58663 22.3598 5.60321 22.383 5.61979C22.3598 5.60321 22.3366 5.58331 22.3167 5.56342C22.2935 5.54352 22.2736 5.52694 22.2504 5.50705C22.1443 5.41088 22.0415 5.30809 21.9486 5.19535C21.9387 5.1854 21.9287 5.17213 21.9221 5.16219C21.879 5.10581 21.8856 5.11576 21.9453 5.19535C21.9354 5.19203 21.8956 5.12571 21.8956 5.12571C21.8525 5.06603 21.8127 5.00633 21.7762 4.94334C21.7397 4.88033 21.7033 4.81733 21.6701 4.75432L21.6303 4.67474C21.617 4.64821 21.6071 4.62169 21.5938 4.59516C21.6038 4.62169 21.617 4.64821 21.627 4.67142C21.5938 4.65484 21.564 4.50231 21.5507 4.46252C21.5275 4.39289 21.5076 4.31993 21.491 4.24698C21.4744 4.18066 21.4612 4.11434 21.4512 4.04802C21.4413 3.99497 21.4512 3.90543 21.4512 4.06792C21.4512 4.02481 21.4413 3.97508 21.438 3.93196C21.4247 3.77943 21.428 3.62358 21.438 3.46773C21.4413 3.43789 21.4446 3.40804 21.4446 3.37489C21.4579 3.22235 21.4214 3.49095 21.4413 3.39478C21.4579 3.3152 21.4711 3.2323 21.491 3.15272C21.5242 3.01676 21.5772 2.88744 21.6203 2.75148C21.6469 2.66195 21.5474 2.9007 21.6137 2.76806C21.627 2.74154 21.6369 2.71501 21.6502 2.68848C21.69 2.6089 21.7298 2.53263 21.7762 2.45968C21.8127 2.39667 21.8525 2.33699 21.8956 2.2773C21.9055 2.26404 21.9387 2.20767 21.9453 2.20767C21.9022 2.21762 21.8591 2.31046 21.9354 2.22425C22.0348 2.1115 22.1376 1.99876 22.2504 1.89597C22.2769 1.87275 22.4294 1.74675 22.3499 1.80975C22.2736 1.87275 22.4294 1.75669 22.4593 1.73348C22.5919 1.64395 22.7345 1.571 22.8771 1.50137C22.96 1.46157 22.8539 1.49142 22.8406 1.51463C22.8506 1.49805 22.9235 1.48147 22.9434 1.47484C23.0064 1.45163 23.0694 1.43173 23.1324 1.41183C23.2054 1.39194 23.275 1.37204 23.348 1.35878C23.3778 1.35215 23.4077 1.34551 23.4375 1.3422C23.4673 1.33556 23.4972 1.33225 23.527 1.32893C23.4342 1.3422 23.411 1.3422 23.464 1.33888C23.6099 1.32562 23.7558 1.31567 23.9017 1.3223C23.978 1.32562 24.0543 1.33225 24.1305 1.33888C24.2632 1.34883 24.0908 1.33225 24.0908 1.33225C24.104 1.31898 24.2234 1.35546 24.2466 1.35878C24.4091 1.39194 24.5616 1.44168 24.7175 1.49473C24.8335 1.53452 24.734 1.47152 24.7009 1.48478C24.7108 1.48147 24.8103 1.53452 24.8203 1.54116C24.8998 1.58095 24.9761 1.62074 25.0491 1.66716C25.1121 1.70364 25.1718 1.74343 25.2314 1.78654C25.2447 1.79649 25.2547 1.80312 25.2679 1.81307C25.3243 1.85617 25.3143 1.84623 25.2381 1.78654C25.258 1.78322 25.3243 1.85617 25.3376 1.86944C25.4569 1.97223 25.5697 2.08829 25.6725 2.20767C25.6725 2.20767 25.7288 2.26735 25.7288 2.27399C25.6691 2.19772 25.6625 2.18777 25.7023 2.24415C25.7156 2.26073 25.7288 2.28062 25.7388 2.2972C25.7852 2.36352 25.8283 2.42984 25.8681 2.49947C25.9112 2.57574 25.9543 2.65201 25.9908 2.73159C25.9974 2.74485 26.0306 2.80454 26.0273 2.81117C25.9908 2.71833 25.9842 2.70838 26.0107 2.7747C26.0173 2.78796 26.0206 2.80122 26.0273 2.81449C26.0836 2.96702 26.1301 3.12619 26.1599 3.28536C26.1632 3.30194 26.1931 3.40804 26.1831 3.41799C26.1798 3.38815 26.1765 3.36162 26.1732 3.33178C26.1765 3.36162 26.1798 3.39146 26.1831 3.42131C26.1831 3.5241 26.1864 3.61696 26.1864 3.7098C26.1898 4.05798 26.4882 4.38958 26.8497 4.37302C27.2078 4.35644 27.5162 4.08122 27.5129 3.7098C27.4996 2.13802 26.5082 0.761912 25.0425 0.214742C23.6365 -0.30918 21.9288 0.151737 20.9771 1.31236C20.4631 1.93908 20.1647 2.66858 20.1017 3.47769C20.0453 4.21386 20.2376 4.98647 20.6223 5.61646C21.4413 6.96935 23.0297 7.63919 24.5683 7.33413C26.2727 6.99922 27.4963 5.4208 27.5095 3.70646C27.5129 3.35829 27.2012 3.02669 26.8463 3.04324C26.4882 3.05982 26.1898 3.33505 26.1864 3.70974L26.1864 3.70978Z" fill="#717171"/>
<path d="M5.78742 9.3464C6.76898 10.4075 7.75047 11.472 8.73197 12.5331C8.86793 12.6823 9.0072 12.8315 9.14315 12.9774C9.37858 13.2327 9.84615 13.2327 10.0816 12.9774C10.3336 12.7055 10.3336 12.3109 10.0816 12.039C9.10004 10.9779 8.11854 9.91341 7.13704 8.8523C7.00109 8.70308 6.86181 8.55386 6.72587 8.40796C6.49043 8.15263 6.02286 8.15263 5.78742 8.40796C5.53541 8.67987 5.53541 9.07446 5.78742 9.3464Z" fill="#717171"/>
<path d="M16.3947 13.3161C17.0446 12.5833 17.6946 11.8538 18.3445 11.121C19.379 9.95707 20.4136 8.79312 21.4483 7.6259C21.6837 7.36062 21.9191 7.09535 22.1545 6.83007C22.3833 6.57142 22.4298 6.14368 22.1545 5.89162C21.9025 5.6595 21.4615 5.61308 21.2161 5.89162C20.5661 6.62445 19.9162 7.35395 19.2663 8.08679C18.2318 9.25067 17.1971 10.4146 16.1625 11.5818C15.9271 11.8471 15.6917 12.1124 15.4563 12.3777C15.2275 12.6363 15.181 13.0641 15.4563 13.3161C15.7083 13.5482 16.1493 13.5914 16.3947 13.3161Z" fill="#717171"/>
<path d="M30.6734 10.7395C30.6734 10.7793 30.6701 10.8158 30.6701 10.8556C30.6701 10.9518 30.7066 10.6898 30.6734 10.8357C30.6602 10.8954 30.6502 10.9518 30.6303 11.0081C30.627 11.0214 30.6204 11.0347 30.6171 11.0513C30.5972 11.1043 30.5972 11.1076 30.6204 11.0546C30.627 11.0413 30.6303 11.028 30.637 11.0148C30.6237 11.0413 30.6138 11.0678 30.6005 11.0944C30.5939 11.1109 30.5043 11.2834 30.4878 11.2801C30.4811 11.2801 30.5806 11.1739 30.511 11.2469C30.4878 11.2734 30.4645 11.2999 30.438 11.3265C30.4214 11.3431 30.322 11.4591 30.2954 11.4558C30.2954 11.4558 30.4115 11.3795 30.3253 11.4293C30.2987 11.4425 30.2755 11.4591 30.2523 11.4757C30.2225 11.4956 30.1893 11.5089 30.1562 11.5288C30.1363 11.5387 30.1164 11.5486 30.0965 11.5553C30.1827 11.5188 30.1993 11.5122 30.1528 11.5288C30.0898 11.5354 30.0235 11.5685 29.9605 11.5818C29.9638 11.5818 29.8776 11.6017 29.871 11.5984C29.8909 11.6183 30.0202 11.5851 29.8876 11.5884C29.8312 11.5918 29.735 11.5685 29.6787 11.5851C29.7549 11.5619 29.798 11.6083 29.7218 11.5918C29.6787 11.5818 29.6355 11.5752 29.5924 11.5619C29.5593 11.552 29.5195 11.5321 29.4863 11.5288C29.4001 11.5188 29.6256 11.6017 29.5029 11.5354C29.4532 11.5089 29.4001 11.4823 29.3504 11.4525C29.3371 11.4459 29.3272 11.4359 29.3139 11.4293C29.2675 11.3961 29.2675 11.3961 29.3106 11.4293C29.3205 11.4392 29.3338 11.4459 29.3437 11.4558C29.3205 11.4392 29.3006 11.4193 29.2774 11.3994C29.2244 11.3497 29.1746 11.3 29.1282 11.2436C29.042 11.1507 29.1547 11.2734 29.1514 11.2767C29.1448 11.2801 29.0984 11.1972 29.0917 11.1872C29.0818 11.1706 28.9889 11.038 29.0022 11.0148C29.0022 11.0115 29.0486 11.1507 29.0221 11.0512C29.0121 11.0148 28.9989 10.9816 28.9889 10.9451C28.979 10.9087 28.9724 10.8722 28.9657 10.8357C28.9359 10.7064 28.9657 10.975 28.969 10.8324V10.6467C28.9724 10.5107 28.9624 10.6898 28.9591 10.6865C28.9491 10.6765 28.9757 10.5903 28.979 10.5771C28.9823 10.5671 29.0221 10.3847 29.0354 10.3847C29.0387 10.3847 28.9723 10.5141 29.0188 10.4212C29.0387 10.3814 29.0586 10.3449 29.0785 10.3051C29.095 10.2753 29.1249 10.2455 29.1382 10.2123C29.168 10.1327 29.032 10.3284 29.1249 10.2256C29.1647 10.1825 29.2012 10.1394 29.2443 10.0996C29.2708 10.0764 29.3006 10.0531 29.3238 10.0299C29.3869 9.96692 29.1879 10.1128 29.3106 10.0432C29.3736 10.0067 29.4366 9.97024 29.4996 9.93708C29.6123 9.87739 29.4631 9.95698 29.4631 9.95366C29.4631 9.94703 29.556 9.92382 29.5692 9.9205C29.6322 9.90061 29.7019 9.89729 29.7649 9.87739C29.6256 9.91719 29.672 9.88734 29.7251 9.88734C29.7649 9.88734 29.8013 9.88403 29.8411 9.88403C29.8544 9.88403 29.9539 9.88071 29.9572 9.89066C29.9539 9.87739 29.798 9.86081 29.9605 9.89397C29.9804 9.89729 30.1727 9.93708 30.1727 9.95698C30.1727 9.9603 30.0434 9.89397 30.1363 9.9404C30.1761 9.9603 30.2125 9.98019 30.2523 10.0001C30.2755 10.0134 30.3021 10.0332 30.3253 10.0465C30.4447 10.1128 30.2357 9.96029 30.3286 10.0465C30.3883 10.0996 30.4413 10.1559 30.4977 10.2123C30.5906 10.3118 30.4878 10.1957 30.4878 10.1957C30.4944 10.1924 30.5541 10.2985 30.5574 10.3052C30.5707 10.3317 30.5872 10.3549 30.6005 10.3814C30.6105 10.4013 30.6204 10.4212 30.6303 10.4411C30.6502 10.4875 30.6436 10.4676 30.6071 10.3847C30.6237 10.3847 30.6635 10.5804 30.6701 10.597C30.6735 10.6102 30.6768 10.6268 30.6801 10.6401C30.69 10.6998 30.69 10.6998 30.6801 10.6401C30.6735 10.5804 30.6701 10.5837 30.6768 10.6434C30.6735 10.6765 30.6735 10.7064 30.6735 10.7395C30.6801 11.0877 30.9752 11.4193 31.3367 11.4028C31.6915 11.3862 32.0065 11.111 31.9999 10.7395C31.9866 9.80444 31.403 8.99532 30.5243 8.67699C29.7052 8.38187 28.7105 8.65378 28.16 9.32694C27.5764 10.0399 27.4604 11.0579 27.9445 11.8603C28.4319 12.6628 29.3538 13.0408 30.2656 12.875C31.2737 12.6926 31.9833 11.7409 31.9966 10.7428C32.0032 10.3946 31.6882 10.063 31.3334 10.0796C30.9719 10.0929 30.6801 10.3648 30.6735 10.7395L30.6734 10.7395Z" fill="#717171"/>
<path d="M25.5207 6.5518C26.3662 7.49025 27.2151 8.4253 28.0607 9.36374C28.1801 9.49638 28.2995 9.62571 28.4189 9.75835C28.651 10.017 29.1219 10.0137 29.3573 9.75835C29.6093 9.48312 29.606 9.09512 29.3573 8.8199C28.5118 7.88145 27.6629 6.9464 26.8173 6.00796C26.6979 5.87532 26.5785 5.74599 26.4591 5.61336C26.227 5.35471 25.7561 5.35803 25.5207 5.61336C25.2687 5.88858 25.272 6.27658 25.5207 6.5518Z" fill="#717171"/>
</svg>
