<svg width="15" height="17" viewBox="0 0 15 17" fill="none" xmlns="http://www.w3.org/2000/svg">
<path d="M10.8116 11.1968C11.295 10.928 11.8482 10.7749 12.4374 10.7749H12.4394C12.4993 10.7749 12.5273 10.7005 12.4834 10.6591C11.8706 10.0897 11.1706 9.62984 10.4121 9.2983C10.4041 9.29416 10.3962 9.29209 10.3882 9.28796C11.6285 8.35523 12.4354 6.83929 12.4354 5.12895C12.4354 2.29562 10.2224 0 7.49204 0C4.76169 0 2.55064 2.29562 2.55064 5.12895C2.55064 6.83929 3.35756 8.35523 4.5999 9.28796C4.59191 9.29209 4.58392 9.29416 4.57593 9.2983C3.68313 9.68917 2.8822 10.2496 2.19312 10.9652C1.50802 11.6733 0.962591 12.5127 0.587265 13.4366C0.217985 14.3413 0.018688 15.3107 4.99452e-05 16.2927C-0.000483152 16.3148 0.0032559 16.3367 0.0110469 16.3573C0.0188379 16.3778 0.0305232 16.3966 0.0454141 16.4124C0.0603051 16.4282 0.0781005 16.4407 0.0977517 16.4493C0.117403 16.4579 0.138513 16.4623 0.159836 16.4623H1.35624C1.44212 16.4623 1.51403 16.3899 1.51602 16.301C1.55597 14.7044 2.17315 13.2091 3.26568 12.0758C4.39418 10.9032 5.89617 10.2579 7.49403 10.2579C8.62652 10.2579 9.71307 10.5826 10.6498 11.1906C10.6739 11.2063 10.7015 11.2151 10.7299 11.2162C10.7583 11.2173 10.7865 11.2106 10.8116 11.1968ZM7.49403 8.68613C6.57926 8.68613 5.71841 8.31594 5.06927 7.6438C4.74989 7.31395 4.49669 6.92193 4.32427 6.49032C4.15184 6.0587 4.0636 5.59603 4.06462 5.12895C4.06462 4.17968 4.42214 3.28625 5.06927 2.61411C5.71641 1.94197 6.57726 1.57178 7.49403 1.57178C8.41081 1.57178 9.26966 1.94197 9.91879 2.61411C10.2382 2.94396 10.4914 3.33598 10.6638 3.76759C10.8362 4.1992 10.9245 4.66187 10.9234 5.12895C10.9234 6.07822 10.5659 6.97165 9.91879 7.6438C9.26966 8.31594 8.40881 8.68613 7.49403 8.68613ZM14.8402 13.6083H13.1625V11.871C13.1625 11.78 13.0906 11.7056 13.0027 11.7056H11.8842C11.7963 11.7056 11.7244 11.78 11.7244 11.871V13.6083H10.0466C9.95874 13.6083 9.88683 13.6827 9.88683 13.7737V14.9319C9.88683 15.0229 9.95874 15.0973 10.0466 15.0973H11.7244V16.8346C11.7244 16.9255 11.7963 17 11.8842 17H13.0027C13.0906 17 13.1625 16.9255 13.1625 16.8346V15.0973H14.8402C14.9281 15.0973 15 15.0229 15 14.9319V13.7737C15 13.6827 14.9281 13.6083 14.8402 13.6083Z" fill="white"/>
</svg>
