<svg width="63" height="25" viewBox="0 0 63 25" fill="none" xmlns="http://www.w3.org/2000/svg">
<g clip-path="url(#clip0_1_567)">
<path d="M50.9996 22.853C51.4195 22.8433 51.8225 22.6855 52.1373 22.4073C52.4521 22.1291 52.6583 21.7486 52.7196 21.333H49.2129C49.2759 21.7599 49.4918 22.1493 49.8204 22.4289C50.1491 22.7085 50.5681 22.8592 50.9996 22.853Z" fill="#222222"/>
<path d="M60.6732 18.5536C60.0303 17.9805 59.4675 17.3235 58.9999 16.6003C58.4894 15.602 58.1834 14.5117 58.0999 13.3936V10.1003C58.0972 9.70023 58.0615 9.3011 57.9932 8.90693C57.4685 8.80204 56.9642 8.61293 56.4999 8.34693C56.6769 8.91682 56.7668 9.51018 56.7665 10.1069V13.4003C56.8482 14.7643 57.2235 16.0946 57.8665 17.3003C58.3268 18.0296 58.8729 18.7011 59.4932 19.3003H42.4199C43.0401 18.7011 43.5863 18.0296 44.0465 17.3003C44.6896 16.0946 45.0648 14.7643 45.1465 13.4003V10.1003C45.143 9.32872 45.2917 8.56406 45.5842 7.85007C45.8766 7.13609 46.307 6.48679 46.8507 5.93937C47.3944 5.39195 48.0407 4.95715 48.7527 4.65987C49.4647 4.36259 50.2283 4.20867 50.9999 4.20693C52.129 4.20783 53.2329 4.54176 54.1732 5.16693C54.0695 4.78625 54.0114 4.39463 53.9999 4.00026V3.58026C53.3038 3.23783 52.556 3.01259 51.7865 2.91359V2.07359C51.7865 1.83755 51.6928 1.61118 51.5259 1.44427C51.359 1.27736 51.1326 1.18359 50.8965 1.18359C50.6605 1.18359 50.4341 1.27736 50.2672 1.44427C50.1003 1.61118 50.0065 1.83755 50.0065 2.07359V2.94693C48.2837 3.18996 46.7069 4.04809 45.5674 5.36288C44.4278 6.67768 43.8024 8.36035 43.8065 10.1003V13.3936C43.723 14.5117 43.4171 15.602 42.9065 16.6003C42.4471 17.3218 41.8933 17.9788 41.2599 18.5536C41.1888 18.6161 41.1318 18.693 41.0927 18.7792C41.0536 18.8654 41.0333 18.9589 41.0332 19.0536V19.9603C41.0332 20.1371 41.1034 20.3066 41.2285 20.4317C41.3535 20.5567 41.5231 20.6269 41.6999 20.6269H60.2332C60.41 20.6269 60.5796 20.5567 60.7046 20.4317C60.8296 20.3066 60.8999 20.1371 60.8999 19.9603V19.0536C60.8997 18.9589 60.8795 18.8654 60.8404 18.7792C60.8013 18.693 60.7443 18.6161 60.6732 18.5536Z" fill="#222222"/>
<path d="M59.0013 7.33366C60.8423 7.33366 62.3346 5.84127 62.3346 4.00033C62.3346 2.15938 60.8423 0.666992 59.0013 0.666992C57.1604 0.666992 55.668 2.15938 55.668 4.00033C55.668 5.84127 57.1604 7.33366 59.0013 7.33366Z" fill="#FF3B30"/>
</g>
<path d="M16.8798 16.2256C18.2717 14.2804 18.8951 11.8686 18.6253 9.47288C18.3555 7.07713 17.2124 4.87404 15.4247 3.30438C13.6371 1.73472 11.3366 0.914246 8.98365 1.0071C6.63068 1.09996 4.3987 2.0993 2.73426 3.80519C1.06982 5.51108 0.0956597 7.79772 0.00667914 10.2076C-0.0823014 12.6175 0.720458 14.973 2.25435 16.8027C3.78825 18.6325 5.94016 19.8016 8.27957 20.0762C10.619 20.3508 12.9734 19.7106 14.8717 18.2837H14.8702C14.9134 18.3426 14.9594 18.3985 15.0111 18.453L20.5453 24.1209C20.8148 24.3972 21.1804 24.5524 21.5618 24.5526C21.9431 24.5527 22.3088 24.3977 22.5785 24.1217C22.8483 23.8456 22.9999 23.4711 23 23.0806C23.0001 22.6901 22.8488 22.3155 22.5793 22.0393L17.0451 16.3713C16.9937 16.3181 16.9384 16.2688 16.8798 16.2241V16.2256ZM17.2506 10.5665C17.2506 11.6298 17.0462 12.6827 16.6488 13.6651C16.2515 14.6475 15.6692 15.5401 14.935 16.292C14.2009 17.0438 13.3294 17.6403 12.3702 18.0472C11.411 18.4541 10.3829 18.6635 9.34469 18.6635C8.30647 18.6635 7.27841 18.4541 6.31921 18.0472C5.36002 17.6403 4.48847 17.0438 3.75434 16.292C3.0202 15.5401 2.43785 14.6475 2.04054 13.6651C1.64323 12.6827 1.43874 11.6298 1.43874 10.5665C1.43874 8.41903 2.27168 6.35952 3.75434 4.84103C5.23699 3.32254 7.2479 2.46946 9.34469 2.46946C11.4415 2.46946 13.4524 3.32254 14.935 4.84103C16.4177 6.35952 17.2506 8.41903 17.2506 10.5665Z" fill="#222222"/>
<defs>
<clipPath id="clip0_1_567">
<rect width="24" height="24" fill="white" transform="translate(39)"/>
</clipPath>
</defs>
</svg>
