<svg width="4" height="8" viewBox="0 0 4 8" fill="none" xmlns="http://www.w3.org/2000/svg">
<path d="M0.663692 7.99996C0.749076 8.00025 0.83344 7.98141 0.910584 7.94483C0.987729 7.90824 1.05569 7.85484 1.10949 7.78855L3.86998 4.3603C3.95405 4.25807 4 4.12983 4 3.99748C4 3.86514 3.95405 3.7369 3.86998 3.63466L1.01233 0.20641C0.915315 0.0897262 0.775912 0.0163477 0.624784 0.00241777C0.473656 -0.0115122 0.323183 0.0351474 0.206467 0.132132C0.0897505 0.229116 0.0163522 0.368481 0.00241852 0.519567C-0.0115156 0.670654 0.0351567 0.821086 0.132168 0.93777L2.68691 4.00034L0.217898 7.06291C0.148009 7.14678 0.103614 7.2489 0.0899663 7.35721C0.0763185 7.46551 0.0939884 7.57546 0.140886 7.67404C0.187783 7.77261 0.261945 7.8557 0.354596 7.91346C0.447248 7.97122 0.55451 8.00124 0.663692 7.99996Z" fill="#222222"/>
</svg>
