<svg width="14" height="14" viewBox="0 0 14 14" fill="none" xmlns="http://www.w3.org/2000/svg">
<path d="M7.00985 0C6.09189 0 5.18292 0.180806 4.33484 0.532093C3.48675 0.883381 2.71616 1.39827 2.06707 2.04737C0.756162 3.35827 0.0197027 5.13624 0.0197027 6.99015C0.0135918 8.60427 0.572478 10.1696 1.59948 11.4149L0.201446 12.8129C0.104453 12.9112 0.0387481 13.0361 0.0126231 13.1717C-0.013502 13.3073 0.00112324 13.4476 0.0546534 13.5749C0.112712 13.7006 0.206832 13.8063 0.325065 13.8785C0.443298 13.9507 0.580313 13.9861 0.718717 13.9803H7.00985C8.86375 13.9803 10.6417 13.2438 11.9526 11.9329C13.2635 10.622 14 8.84405 14 6.99015C14 5.13624 13.2635 3.35827 11.9526 2.04737C10.6417 0.73646 8.86375 0 7.00985 0ZM7.00985 12.5823H2.40334L3.05343 11.9322C3.18362 11.8012 3.25669 11.624 3.25669 11.4394C3.25669 11.2547 3.18362 11.0775 3.05343 10.9466C2.13813 10.0323 1.56814 8.82893 1.44058 7.54153C1.31302 6.25412 1.63578 4.96231 2.35387 3.88619C3.07196 2.81007 4.14095 2.01621 5.37871 1.63987C6.61647 1.26353 7.94643 1.32799 9.14199 1.82227C10.3376 2.31655 11.3248 3.21007 11.9354 4.35059C12.5461 5.49112 12.7424 6.80808 12.4909 8.07712C12.2394 9.34616 11.5558 10.4887 10.5563 11.3102C9.5569 12.1317 8.30356 12.5812 7.00985 12.5823Z" fill="#848484"/>
</svg>
